<?xml version="1.0" encoding="utf-8"?>
<!-- Generator: Adobe Illustrator 20.0.0, SVG Export Plug-In . SVG Version: 6.00 Build 0)  -->
<svg version="1.1" id="图层_1" xmlns="http://www.w3.org/2000/svg" xmlns:xlink="http://www.w3.org/1999/xlink" x="0px" y="0px"
	 viewBox="0 0 181.4 181.4" style="enable-background:new 0 0 181.4 181.4;" xml:space="preserve">
<style type="text/css">
	.st0{fill:#B18BBE;}
	.st1{fill:#271B3F;}
	.st2{fill:#5A255F;}
</style>
<path class="st0" d="M158.1,181.4H23.3C10.5,181.4,0,170.9,0,158.1V23.3C0,10.5,10.5,0,23.3,0h134.8c12.8,0,23.3,10.5,23.3,23.3
	v134.8C181.4,170.9,170.9,181.4,158.1,181.4z"/>
<path class="st1" d="M147.4,170.8H34c-12.8,0-23.3-10.5-23.3-23.3V34c0-12.8,10.5-23.3,23.3-23.3h113.5c12.8,0,23.3,10.5,23.3,23.3
	v113.5C170.8,160.3,160.3,170.8,147.4,170.8z"/>
<g>
	<g>
		<path class="st2" d="M80.6,113H51.1l-6,17.9H32.7l28.2-80.2h9.9L99,130.9H86.6L80.6,113z M77.2,102.2L66,67.2h-0.2l-11.2,35.1
			h22.6V102.2z"/>
		<path class="st2" d="M116.8,106.7c0,4.6,1.3,8.1,3.8,10.5c2.4,2.4,5.5,3.6,9.4,3.6c4.5,0,8.5-1.9,12.1-5.6l8,7.1
			c-5.6,6.2-12.3,9.3-19.9,9.2c-2.9,0-5.8-0.4-8.5-1.3c-1.4-0.5-2.7-1.1-4-1.9c-1.4-0.7-2.7-1.6-3.9-2.6c-2.3-2.1-4.2-5.1-5.7-8.9
			c-1.6-3.7-2.4-8.4-2.4-14.3c0-5.6,0.7-10.3,2.1-14.1c1.4-3.8,3.2-6.8,5.3-9c2.2-2.2,4.7-3.8,7.4-4.8s5.4-1.5,8-1.5
			c6.3,0.1,11.7,2.2,16,6.4c4.4,4.3,6.7,10.2,6.8,17.7v9.4L116.8,106.7L116.8,106.7z M140.2,97.3c-0.1-4.5-1.3-7.8-3.5-10.1
			c-2.1-2.2-4.9-3.3-8.2-3.3s-6.1,1.1-8.2,3.3c-2.1,2.3-3.3,5.7-3.5,10.1H140.2z"/>
	</g>
</g>
<g>
	<path class="st0" d="M80.6,109.9H51.1l-6,18.4H32.7l28.2-82.5h9.9L99,128.3H86.6L80.6,109.9z M77.2,98.9L66,62.8h-0.2L54.6,98.9
		H77.2z"/>
	<path class="st0" d="M116.8,103.5c0,4.7,1.3,8.3,3.8,10.8c2.4,2.5,5.5,3.7,9.4,3.7c4.5,0,8.5-1.9,12.1-5.7l8,7.3
		c-5.6,6.4-12.3,9.6-19.9,9.5c-2.9,0-5.8-0.5-8.5-1.4c-1.4-0.5-2.7-1.1-4-2c-1.4-0.7-2.7-1.6-3.9-2.7c-2.3-2.2-4.2-5.2-5.7-9.2
		c-1.6-3.8-2.4-8.7-2.4-14.7c0-5.8,0.7-10.6,2.1-14.5c1.4-3.9,3.2-7,5.3-9.3c2.2-2.3,4.7-4,7.4-5s5.4-1.5,8-1.5
		c6.3,0.1,11.7,2.3,16,6.6c4.4,4.4,6.7,10.5,6.8,18.2v9.7h-34.5V103.5z M140.2,93.8c-0.1-4.6-1.3-8.1-3.5-10.4
		c-2.1-2.2-4.9-3.4-8.2-3.4s-6.1,1.1-8.2,3.4s-3.3,5.8-3.5,10.4H140.2z"/>
</g>
</svg>
