<?xml version="1.0" encoding="utf-8"?>
<!-- Generator: Adobe Illustrator 20.0.0, SVG Export Plug-In . SVG Version: 6.00 Build 0)  -->
<svg version="1.1" id="图层_1" xmlns="http://www.w3.org/2000/svg" xmlns:xlink="http://www.w3.org/1999/xlink" x="0px" y="0px"
	 viewBox="0 0 181.4 181.4" style="enable-background:new 0 0 181.4 181.4;" xml:space="preserve">
<style type="text/css">
	.st0{fill:#F39B3E;}
	.st1{fill:#8C5C25;}
	.st2{fill:#3C2B11;}
</style>
<path class="st0" d="M158.1,181.4H23.3C10.5,181.4,0,170.9,0,158.1V23.3C0,10.5,10.5,0,23.3,0h134.8c12.8,0,23.3,10.5,23.3,23.3
	v134.8C181.4,170.9,170.9,181.4,158.1,181.4z"/>
<path class="st1" d="M147.4,170.8H34c-12.8,0-23.3-10.5-23.3-23.3V34c0-12.8,10.5-23.3,23.3-23.3h113.5c12.8,0,23.3,10.5,23.3,23.3
	v113.5C170.8,160.3,160.3,170.8,147.4,170.8z"/>
<g>
	<g>
		<path class="st2" d="M92.2,116.7H62.8l-6,17.9H44.4l28.2-80.2h9.9l28.2,80.2H98.3L92.2,116.7z M88.9,105.9L77.6,70.8h-0.2
			l-11.2,35.1H88.9z"/>
		<path class="st2" d="M120.5,54.4h11.1v11.4h-11.1V54.4z M120.5,77.5h11.1v57.1h-11.1V77.5z"/>
	</g>
</g>
<g>
	<path class="st0" d="M89.2,111.8H59.7l-6,18.4H41.3l28.2-82.5h9.9l28.2,82.5H95.2L89.2,111.8z M85.8,100.7L74.6,64.6h-0.2
		l-11.3,36.1H85.8z"/>
	<path class="st0" d="M117.4,47.8h11.1v11.8h-11.1C117.4,59.6,117.4,47.8,117.4,47.8z M117.4,71.5h11.1v58.7h-11.1
		C117.4,130.2,117.4,71.5,117.4,71.5z"/>
</g>
</svg>
