<?xml version="1.0" encoding="utf-8"?>
<!-- Generator: Adobe Illustrator 20.0.0, SVG Export Plug-In . SVG Version: 6.00 Build 0)  -->
<svg version="1.1" id="图层_1" xmlns="http://www.w3.org/2000/svg" xmlns:xlink="http://www.w3.org/1999/xlink" x="0px" y="0px"
	 viewBox="0 0 181.4 181.4" style="enable-background:new 0 0 181.4 181.4;" xml:space="preserve">
<style type="text/css">
	.st0{fill:url(#SVGID_1_);}
	.st1{fill:#FFFFFF;}
</style>
<linearGradient id="SVGID_1_" gradientUnits="userSpaceOnUse" x1="0" y1="92.7" x2="181.4" y2="92.7" gradientTransform="matrix(1 0 0 -1 0 183.4)">
	<stop  offset="0" style="stop-color:#5195D1"/>
	<stop  offset="1" style="stop-color:#46C0EE"/>
</linearGradient>
<path class="st0" d="M158.1,181.4H23.3C10.5,181.4,0,170.9,0,158.1V23.3C0,10.5,10.5,0,23.3,0h134.8c12.8,0,23.3,10.5,23.3,23.3
	v134.8C181.4,170.9,170.9,181.4,158.1,181.4z"/>
<g>
	<path class="st1" d="M71.8,49.3c-0.9,4-2.7,7-5.2,9.2c-2.6,2.1-5.8,3.2-9.4,3.2c-3.3-0.1-6-0.9-8.2-2.5c-2.2-1.5-3.8-3.3-4.8-5.2
		c-0.3-0.6-0.6-1.3-0.8-1.9c-0.2-0.6-0.4-1.4-0.6-2.3c-0.3-1.7-0.4-5-0.4-10s0.1-8.3,0.4-10c0.3-1.7,0.8-3.1,1.4-4.1
		c1-2,2.6-3.8,4.9-5.3c2.2-1.6,4.9-2.4,8.2-2.4c4,0,7.3,1.3,9.8,3.7s4.1,5.4,4.8,9h-6.7c-0.5-1.7-1.4-3.2-2.8-4.4s-3.1-1.8-5.1-1.8
		c-1.5,0-2.8,0.3-3.8,0.9c-1.1,0.6-2,1.3-2.6,2.2c-0.8,0.9-1.4,2.1-1.6,3.6c-0.3,1.5-0.5,4.4-0.5,8.7c0,4.2,0.2,7.1,0.5,8.6
		c0.3,1.5,0.8,2.7,1.6,3.6c0.7,0.9,1.5,1.6,2.6,2.2s2.3,1,3.8,1c3.5,0,6.2-2,7.9-5.9L71.8,49.3L71.8,49.3z"/>
	<path class="st1" d="M77.8,50.9c3.3,2.8,7.3,4.2,11.8,4.3c5.4-0.1,8.1-2.1,8.2-6c0-3.2-1.8-5.1-5.4-5.8c-1.7-0.2-3.5-0.5-5.5-0.8
		c-3.6-0.6-6.3-2-8.2-4.1c-1.9-2.2-2.9-4.8-2.9-8c0-3.8,1.2-6.8,3.6-9.1c2.3-2.3,5.7-3.4,10-3.5c5.2,0.1,9.7,1.6,13.5,4.4l-3.5,5.3
		c-3.1-2.1-6.6-3.2-10.3-3.3c-1.9,0-3.6,0.5-4.9,1.5c-1.4,1-2,2.6-2.1,4.7c0,1.2,0.5,2.4,1.4,3.4c0.9,1,2.4,1.7,4.5,2.1
		c1.1,0.2,2.7,0.4,4.7,0.7c3.9,0.6,6.8,2,8.6,4.3c1.8,2.3,2.8,5,2.8,8c-0.2,8.2-5.1,12.4-14.6,12.5c-6.2,0-11.5-2-15.9-5.9
		L77.8,50.9z"/>
	<path class="st1" d="M112.4,50.9c3.3,2.8,7.3,4.2,11.8,4.3c5.4-0.1,8.1-2.1,8.2-6c0-3.2-1.8-5.1-5.4-5.8c-1.7-0.2-3.5-0.5-5.5-0.8
		c-3.6-0.6-6.3-2-8.2-4.1c-1.9-2.2-2.9-4.8-2.9-8c0-3.8,1.2-6.8,3.6-9.1c2.3-2.3,5.7-3.4,10-3.5c5.2,0.1,9.7,1.6,13.5,4.4l-3.5,5.3
		c-3.1-2.1-6.6-3.2-10.3-3.3c-1.9,0-3.6,0.5-4.9,1.5c-1.4,1-2,2.6-2.1,4.7c0,1.2,0.5,2.4,1.4,3.4s2.4,1.7,4.5,2.1
		c1.1,0.2,2.7,0.4,4.7,0.7c3.9,0.6,6.8,2,8.6,4.3s2.8,5,2.8,8c-0.2,8.2-5.1,12.4-14.6,12.5c-6.2,0-11.5-2-15.9-5.9L112.4,50.9z"/>
</g>
<g>
	<path class="st1" d="M83.7,113.6H88c4.3,0,7.6-1.2,10-3.7c2.4-2.4,3.5-5.4,3.5-9.2c-0.1-3.8-1.3-6.9-3.7-9.4
		c-2.4-2.4-5.4-3.6-9.1-3.7c-2.7,0-5.1,0.9-7.3,2.7c-2.3,1.8-3.9,4.5-4.7,8.3H64.2c0.6-6.7,3.3-12.3,7.9-16.9
		c4.5-4.5,9.9-6.8,16.2-6.9c8,0.1,14.3,2.7,18.9,7.9c4.5,5,6.8,11,6.8,17.8c0,3.5-0.6,6.8-1.9,10c-1.4,3.2-4,6.1-7.7,8.6
		c3.8,2.5,6.5,5.4,8.2,8.9c1.6,3.5,2.4,7.1,2.4,10.9c-0.1,8.5-2.6,15.1-7.6,20c-4.9,5-11.2,7.5-18.9,7.6c-6,0-11.2-2-15.8-5.9
		c-4.6-4-7.6-9.7-8.9-17.2h12.5c1.1,3,2.7,5.5,4.7,7.3c2.1,1.9,4.8,2.9,8.3,2.9c3.7,0,6.8-1.3,9.3-3.9c2.6-2.4,3.9-5.9,4-10.4
		c-0.1-4.6-1.4-8.1-4-10.7c-2.5-2.4-5.7-3.7-9.6-3.7h-5.3V113.6z"/>
</g>
</svg>
