<?xml version="1.0" encoding="utf-8"?>
<!-- Generator: Adobe Illustrator 20.0.0, SVG Export Plug-In . SVG Version: 6.00 Build 0)  -->
<svg version="1.1" id="图层_1" xmlns="http://www.w3.org/2000/svg" xmlns:xlink="http://www.w3.org/1999/xlink" x="0px" y="0px"
	 viewBox="0 0 181.4 181.4" style="enable-background:new 0 0 181.4 181.4;" xml:space="preserve">
<style type="text/css">
	.st0{fill:#AF1E23;}
	.st1{fill:#53090E;}
	.st2{fill:#8B1C21;}
	.st3{fill:#E9505B;}
</style>
<path class="st0" d="M158.1,181.4H23.3C10.5,181.4,0,170.9,0,158.1V23.3C0,10.5,10.5,0,23.3,0h134.8c12.8,0,23.3,10.5,23.3,23.3
	v134.8C181.4,170.9,170.9,181.4,158.1,181.4z"/>
<path class="st1" d="M147.4,170.8H34c-12.8,0-23.3-10.5-23.3-23.3V34c0-12.8,10.5-23.3,23.3-23.3h113.5c12.8,0,23.3,10.5,23.3,23.3
	v113.5C170.8,160.3,160.3,170.8,147.4,170.8z"/>
<g>
	<g>
		<path class="st2" d="M41.8,53.8h49.6v11.4H53.5v23.7h32.3v10.8H53.5V134H41.8V53.8z"/>
		<path class="st2" d="M102.3,53.8h11.8v68.7h37.8v11.4h-49.6V53.8z"/>
	</g>
</g>
<g>
	<g>
		<path class="st3" d="M39.8,50.3h49.6v11.5H51.5v24h32.3v10.9H51.5v34.6H39.8V50.3z"/>
		<path class="st3" d="M100.3,50.3h11.8v69.4h37.8v11.5h-49.6V50.3z"/>
	</g>
</g>
</svg>
