<?xml version="1.0" encoding="utf-8"?>
<!-- Generator: Adobe Illustrator 20.0.0, SVG Export Plug-In . SVG Version: 6.00 Build 0)  -->
<svg version="1.1" id="图层_1" xmlns="http://www.w3.org/2000/svg" xmlns:xlink="http://www.w3.org/1999/xlink" x="0px" y="0px"
	 viewBox="0 0 181.4 181.4" style="enable-background:new 0 0 181.4 181.4;" xml:space="preserve">
<style type="text/css">
	.st0{fill:url(#SVGID_1_);}
	.st1{fill:#FFFFFF;}
</style>
<linearGradient id="SVGID_1_" gradientUnits="userSpaceOnUse" x1="0" y1="92.7" x2="181.4" y2="92.7" gradientTransform="matrix(1 0 0 -1 0 183.4)">
	<stop  offset="0" style="stop-color:#E83818"/>
	<stop  offset="1" style="stop-color:#EF8160"/>
</linearGradient>
<path class="st0" d="M158.1,181.4H23.3C10.5,181.4,0,170.9,0,158.1V23.3C0,10.5,10.5,0,23.3,0h134.8c12.8,0,23.3,10.5,23.3,23.3
	v134.8C181.4,170.9,170.9,181.4,158.1,181.4z"/>
<g>
	<path class="st1" d="M44.9,42.6H28.4v18.8h-6.3v-43h6.3v18.4h16.5V18.4h6.3v43h-6.3V42.6z"/>
	<path class="st1" d="M68.3,24.1H56.9v-5.8H86v5.8H74.6v37.2h-6.3V24.1z"/>
	<path class="st1" d="M91.4,18.4h5.9l11.9,28l11.7-28h6v43h-6.3V34.5h-0.1l-8.8,20.7h-5.3l-8.7-20.6l0,0v26.8h-6.3V18.4z"/>
	<path class="st1" d="M137.1,18.4h6.3v36.8h20.3v6.1h-26.6V18.4z"/>
</g>
<g>
	<path class="st1" d="M68.3,75.5h46.6v12.9H80.1V109c4.1-3.3,8.8-4.9,14-4.9c3.4,0.1,6.5,0.7,9.3,1.9c2.6,1.3,4.8,2.8,6.4,4.7
		c2.4,2.5,4.2,5.3,5.3,8.6c0.6,1.8,1,3.9,1.2,6.5s0.4,5.8,0.4,9.6c0,5.9-0.4,10.3-1.2,13.5c-0.8,3.1-2.2,5.8-4.2,8.2
		c-1.7,2.3-4.2,4.5-7.5,6.4c-3.2,2-7,3.1-11.4,3.1c-5.9,0-11.3-1.8-16.2-5.4c-5-3.7-8.1-9.7-9.3-18h12.5c1.4,6.9,5.5,10.5,12.5,10.5
		c3,0,5.4-0.6,7.2-1.9c1.7-1.2,2.9-2.8,3.6-4.7s1.2-4,1.3-6.3c0.1-2.2,0.1-4.4,0.1-6.5c0.1-5.2-0.7-9.4-2.3-12.6
		c-0.9-1.5-2.2-2.7-3.9-3.7c-1.7-0.7-3.9-1.1-6.4-1.1c-2.3,0-4.4,0.5-6.3,1.6c-1.9,1.1-3.6,3.1-5.1,5.8H68.3V75.5z"/>
</g>
</svg>
