<?xml version="1.0" encoding="utf-8"?>
<!-- Generator: Adobe Illustrator 20.0.0, SVG Export Plug-In . SVG Version: 6.00 Build 0)  -->
<svg version="1.1" id="图层_1" xmlns="http://www.w3.org/2000/svg" xmlns:xlink="http://www.w3.org/1999/xlink" x="0px" y="0px"
	 viewBox="0 0 181.4 181.4" style="enable-background:new 0 0 181.4 181.4;" xml:space="preserve">
<style type="text/css">
	.st0{fill:url(#SVGID_1_);}
	.st1{fill:#FFFFFF;}
</style>
<linearGradient id="SVGID_1_" gradientUnits="userSpaceOnUse" x1="0" y1="90.7" x2="181.4" y2="90.7">
	<stop  offset="0" style="stop-color:#0EC3DB"/>
	<stop  offset="1" style="stop-color:#004659"/>
</linearGradient>
<path class="st0" d="M158.1,181.4H23.3C10.5,181.4,0,170.9,0,158.1V23.3C0,10.5,10.5,0,23.3,0h134.8c12.8,0,23.3,10.5,23.3,23.3
	v134.8C181.4,170.9,170.9,181.4,158.1,181.4z"/>
<g>
	<path class="st1" d="M9.2,98.6c0.6,0.8,1.3,1.4,2.2,1.9c0.9,0.6,2,0.9,3.2,0.9c1.6,0,3.2-0.5,4.7-1.8c0.7-0.6,1.3-1.4,1.7-2.4
		c0.4-0.9,0.6-2.1,0.6-3.5V65.4h6.2v29c-0.1,4.2-1.4,7.5-4,9.8c-2.6,2.4-5.6,3.6-9,3.6c-4.8-0.1-8.3-1.9-10.7-5.4L9.2,98.6z"/>
	<path class="st1" d="M59.6,104.1c-2.4,2.4-5.6,3.6-9.6,3.6c-3.2-0.1-5.9-0.9-8-2.4c-2.2-1.5-3.8-3.2-4.7-5.1
		c-0.3-0.6-0.6-1.2-0.8-1.8c-0.2-0.6-0.4-1.3-0.6-2.2c-0.3-1.7-0.4-4.9-0.4-9.7c0-4.9,0.1-8.1,0.4-9.8c0.3-1.7,0.8-3,1.4-4
		c1-1.9,2.6-3.7,4.7-5.2c2.1-1.5,4.8-2.3,8-2.4c3.2,0,5.9,0.8,8.1,2.4c2.1,1.5,3.7,3.2,4.6,5.2c0.7,1,1.2,2.4,1.4,4
		c0.2,1.7,0.4,4.9,0.4,9.8c0,4.4-0.1,7.4-0.3,9.1s-0.6,3.1-1.2,4l5.4,4.4l-3.7,4.4L59.6,104.1z M49.4,95.7l3.7-4.4l4.8,3.9
		c0.4-1.4,0.6-4.4,0.6-8.8c0-4.1-0.1-7-0.4-8.5c-0.3-1.4-0.8-2.6-1.6-3.5c-0.6-0.9-1.4-1.6-2.5-2.2c-1.1-0.6-2.4-0.9-3.8-0.9
		c-1.5,0-2.7,0.3-3.7,0.9c-1.1,0.6-1.9,1.3-2.6,2.2c-0.8,0.9-1.3,2.1-1.6,3.5c-0.3,1.5-0.4,4.3-0.4,8.5c0,4.1,0.1,6.9,0.4,8.4
		c0.3,1.5,0.8,2.6,1.6,3.6c0.7,0.9,1.5,1.6,2.6,2.1c1,0.6,2.3,1,3.7,1c1.9,0,3.4-0.5,4.6-1.5L49.4,95.7z"/>
	<path class="st1" d="M72.3,77.5h5.8v17.8c0,2,0.5,3.6,1.6,4.7c1.1,1.1,2.5,1.7,4.1,1.7c1.7,0,3-0.6,4.1-1.7
		c1.1-1.1,1.6-2.7,1.6-4.7V77.5h5.8v29.9h-5.6v-3.2h-0.1c-1.9,2.4-4.4,3.5-7.5,3.5c-2.4,0-4.6-0.9-6.5-2.7c-2.1-1.7-3.2-4.3-3.2-7.6
		V77.5H72.3z"/>
	<path class="st1" d="M108.4,94.8c0,2.4,0.7,4.2,2,5.5c1.2,1.3,2.9,1.9,4.9,1.9c2.4,0,4.5-1,6.3-2.9l4.2,3.7
		c-3,3.3-6.4,4.9-10.4,4.8c-1.5,0-3-0.2-4.5-0.7c-0.7-0.2-1.4-0.6-2.1-1c-0.7-0.4-1.4-0.8-2-1.4c-1.2-1.1-2.2-2.7-3-4.7
		c-0.8-1.9-1.3-4.4-1.3-7.5c0-3,0.4-5.4,1.1-7.4s1.7-3.6,2.8-4.7c1.2-1.2,2.4-2,3.9-2.5c1.4-0.5,2.8-0.8,4.2-0.8
		c3.3,0,6.1,1.2,8.4,3.4c2.3,2.2,3.5,5.3,3.5,9.3v4.9L108.4,94.8L108.4,94.8z M120.7,89.8c-0.1-2.3-0.7-4.1-1.8-5.3
		c-1.1-1.1-2.6-1.7-4.3-1.7c-1.8,0-3.2,0.6-4.3,1.7c-1.1,1.2-1.7,3-1.8,5.3H120.7z"/>
	<path class="st1" d="M133.5,77.5h5.8v3.2h0.1c1.9-2.4,4.4-3.5,7.5-3.5c2.3,0,4.4,0.8,6.1,2.3l-4.2,5.2c-1.2-1-2.5-1.5-3.8-1.5
		c-1.5,0-2.8,0.5-3.8,1.5c-1.2,1-1.8,2.6-1.8,4.8v18h-5.8v-30H133.5z"/>
	<path class="st1" d="M152.3,77.5h6.2l6.9,20.9h0.1l6.8-20.9h6.2L166,113.6c-0.8,2.2-1.9,3.8-3.3,4.7c-1.4,0.8-3,1.2-4.9,1.2h-1.9
		v-5.6h1.7c0.8,0,1.5-0.2,2.1-0.6c0.7-0.4,1.1-1.1,1.4-2l1.6-5L152.3,77.5z"/>
</g>
</svg>
