<?xml version="1.0" encoding="utf-8"?>
<!-- Generator: Adobe Illustrator 20.0.0, SVG Export Plug-In . SVG Version: 6.00 Build 0)  -->
<svg version="1.1" id="图层_1" xmlns="http://www.w3.org/2000/svg" xmlns:xlink="http://www.w3.org/1999/xlink" x="0px" y="0px"
	 viewBox="0 0 181.4 181.4" style="enable-background:new 0 0 181.4 181.4;" xml:space="preserve">
<style type="text/css">
	.st0{fill:url(#SVGID_1_);}
	.st1{fill:#FFFFFF;}
</style>
<linearGradient id="SVGID_1_" gradientUnits="userSpaceOnUse" x1="0" y1="92.7" x2="181.4" y2="92.7" gradientTransform="matrix(1 0 0 -1 0 183.4)">
	<stop  offset="0" style="stop-color:#F4D31F"/>
	<stop  offset="1" style="stop-color:#F0EB49"/>
</linearGradient>
<path class="st0" d="M158.1,181.4H23.3C10.5,181.4,0,170.9,0,158.1V23.3C0,10.5,10.5,0,23.3,0h134.8c12.8,0,23.3,10.5,23.3,23.3
	v134.8C181.4,170.9,170.9,181.4,158.1,181.4z"/>
<g>
	<path class="st1" d="M28.1,122.2c1.4,1.9,3.2,3.5,5.5,4.8c2.2,1.5,4.9,2.2,7.9,2.2c4,0.1,7.8-1.3,11.5-4.3c1.8-1.5,3.2-3.4,4.2-5.8
		c1-2.3,1.6-5.2,1.6-8.7V40.7h15.1v71.1c-0.2,10.4-3.5,18.4-9.9,24.1c-6.3,5.8-13.7,8.8-22.1,8.8c-11.7-0.3-20.5-4.7-26.4-13.4
		L28.1,122.2z"/>
	<path class="st1" d="M97.2,118.9c8,6.8,17.4,10.2,28.4,10.3c13-0.2,19.6-5,19.8-14.4c0.1-7.7-4.2-12.3-13-13.9
		c-4-0.6-8.4-1.2-13.2-1.9c-8.6-1.5-15.1-4.7-19.6-9.8C95,84,92.7,77.6,92.7,70.1c0-9,2.9-16.3,8.7-21.8c5.6-5.5,13.6-8.3,23.9-8.4
		c12.4,0.3,23.2,3.8,32.4,10.7l-8.4,12.8c-7.5-5.1-15.8-7.8-24.8-7.9c-4.7,0-8.6,1.2-11.7,3.6c-3.2,2.5-4.9,6.2-5,11.2
		c0,3,1.1,5.7,3.4,8.1c2.2,2.5,5.8,4.2,10.8,5.1c2.7,0.5,6.5,1,11.2,1.6c9.4,1.3,16.3,4.8,20.8,10.4c4.4,5.5,6.7,11.9,6.7,19.3
		c-0.5,19.7-12.2,29.8-35.1,30c-14.8,0-27.5-4.7-38.2-14.1L97.2,118.9z"/>
</g>
</svg>
