<?xml version="1.0" encoding="utf-8"?>
<!-- Generator: Adobe Illustrator 20.0.0, SVG Export Plug-In . SVG Version: 6.00 Build 0)  -->
<svg version="1.1" id="图层_1" xmlns="http://www.w3.org/2000/svg" xmlns:xlink="http://www.w3.org/1999/xlink" x="0px" y="0px"
	 viewBox="0 0 181.4 181.4" style="enable-background:new 0 0 181.4 181.4;" xml:space="preserve">
<style type="text/css">
	.st0{fill:#A7D4E8;}
	.st1{fill:#142E37;}
	.st2{fill:#447080;}
</style>
<path class="st0" d="M158.1,181.4H23.3C10.5,181.4,0,170.9,0,158.1V23.3C0,10.5,10.5,0,23.3,0h134.8c12.8,0,23.3,10.5,23.3,23.3
	v134.8C181.4,170.9,170.9,181.4,158.1,181.4z"/>
<path class="st1" d="M147.4,170.8H34c-12.8,0-23.3-10.5-23.3-23.3V34c0-12.8,10.5-23.3,23.3-23.3h113.5c12.8,0,23.3,10.5,23.3,23.3
	v113.5C170.8,160.3,160.3,170.8,147.4,170.8z"/>
<g>
	<g>
		<path class="st2" d="M52.5,54.4h11.8v68.7h37.8v11.4H52.5V54.4z"/>
		<path class="st2" d="M114.1,77.5h11.1v6h0.2c3.7-4.5,8.5-6.8,14.4-6.8c4.4,0.1,8.3,1.5,11.6,4.4l-8.1,9.9
			c-2.3-1.9-4.8-2.9-7.3-2.9c-2.8,0-5.3,1-7.3,2.9c-2.3,1.9-3.4,4.9-3.5,9.1v34.4h-11.1L114.1,77.5L114.1,77.5z"/>
	</g>
</g>
<g>
	<path class="st0" d="M49.4,47.8h11.8v70.7H99v11.8H49.4V47.8z"/>
	<path class="st0" d="M111,71.5h11.1v6.2h0.2c3.7-4.6,8.5-7,14.4-7c4.4,0.1,8.3,1.6,11.6,4.5l-8.1,10.2c-2.3-2-4.8-2.9-7.3-2.9
		c-2.8,0-5.3,1-7.3,2.9c-2.3,1.9-3.4,5-3.5,9.3v35.4H111C111,130.1,111,71.5,111,71.5z"/>
</g>
</svg>
