<?xml version="1.0" encoding="utf-8"?>
<!-- Generator: Adobe Illustrator 20.0.0, SVG Export Plug-In . SVG Version: 6.00 Build 0)  -->
<svg version="1.1" id="图层_1" xmlns="http://www.w3.org/2000/svg" xmlns:xlink="http://www.w3.org/1999/xlink" x="0px" y="0px"
	 viewBox="0 0 181.4 181.4" style="enable-background:new 0 0 181.4 181.4;" xml:space="preserve">
<style type="text/css">
	.st0{fill:#8AADDB;}
	.st1{fill:#105DA5;}
	.st2{fill:#133260;}
	.st3{fill:#A9C5DF;}
</style>
<path class="st0" d="M158.1,181.4H23.3C10.5,181.4,0,170.9,0,158.1V23.3C0,10.5,10.5,0,23.3,0h134.8c12.8,0,23.3,10.5,23.3,23.3
	v134.8C181.4,170.9,170.9,181.4,158.1,181.4z"/>
<path class="st1" d="M147.4,170.8H34c-12.8,0-23.3-10.5-23.3-23.3V34c0-12.8,10.5-23.3,23.3-23.3h113.5c12.8,0,23.3,10.5,23.3,23.3
	v113.5C170.8,160.3,160.3,170.8,147.4,170.8z"/>
<g>
	<g>
		<path class="st2" d="M44,52.9h28.1c3.1,0,6,0.3,8.8,0.9c2.8,0.8,5.7,2.3,8.6,4.7c2.4,1.8,4.4,4.4,6,7.7c1.6,3.2,2.4,7,2.4,11.4
			c0,5.9-2,11.3-6.1,16.2c-4.2,5.1-10.2,7.8-18.2,7.9H55.7V133H44V52.9z M55.7,90.4h17.4c4.4-0.1,7.7-1.5,9.9-4.2
			c2.1-2.7,3.1-5.6,3.1-8.8c0-2.7-0.4-5-1.3-6.8c-0.9-1.7-2.1-3-3.7-3.9c-2.4-1.6-5.2-2.3-8.4-2.3h-17V90.4z"/>
		<path class="st2" d="M111.3,115.7c4.5,4.9,10.4,7.3,17.5,7.3c3.2,0,5.8-0.6,7.8-1.9s3-3.1,3-5.4c0-2.1-0.6-3.5-1.8-4.3
			s-2.9-1.3-5-1.4l-9.8-0.9c-4.7-0.4-8.4-2.1-11.4-4.8s-4.5-6.5-4.6-11.4c0.1-5.9,2.1-10.3,6-13.2c3.8-2.9,8.7-4.4,14.6-4.4
			c2.6,0,4.8,0.2,6.9,0.5c2,0.4,3.9,0.9,5.7,1.5c3.4,1.4,6.5,3.4,9.2,5.8l-6.9,8.3c-2.1-1.6-4.4-2.9-6.8-3.9
			c-2.3-0.9-5.1-1.4-8.1-1.4c-3.5,0-5.9,0.6-7.3,1.9c-1.5,1.3-2.2,2.9-2.2,5c-0.1,1.3,0.5,2.4,1.7,3.4c1.1,1.1,3,1.7,5.7,2l9.2,0.7
			c5.8,0.4,9.9,2.2,12.5,5.4c2.4,3.1,3.6,7,3.6,11.7c-0.1,5.5-2.3,9.8-6.6,12.8c-4.3,3.1-9.7,4.7-16.4,4.7c-9,0-17.1-3.4-24.3-10.2
			L111.3,115.7z"/>
	</g>
</g>
<g>
	<path class="st3" d="M41.9,44.3H70c3.1,0,6,0.3,8.8,0.9c2.8,0.8,5.7,2.4,8.6,4.9c2.4,1.8,4.4,4.5,6,7.9c1.6,3.3,2.4,7.2,2.4,11.8
		c0,6.1-2,11.7-6.1,16.7c-4.2,5.3-10.2,8-18.2,8.1H53.7v32.1H41.9V44.3z M53.7,82.8h17.4c4.4-0.1,7.7-1.5,9.9-4.3
		c2.1-2.7,3.1-5.8,3.1-9.1c0-2.8-0.4-5.1-1.3-7c-0.9-1.7-2.1-3-3.7-4c-2.4-1.7-5.2-2.5-8.4-2.4h-17V82.8z"/>
	<path class="st3" d="M109.3,108.8c4.5,5,10.4,7.5,17.5,7.5c3.2,0,5.8-0.7,7.8-2s3-3.2,3-5.5c0-2.1-0.6-3.6-1.8-4.4
		c-1.2-0.9-2.9-1.3-5-1.4l-9.8-0.9c-4.7-0.5-8.4-2.1-11.4-5c-3-2.8-4.5-6.7-4.6-11.7c0.1-6,2.1-10.6,6-13.6c3.8-3,8.7-4.5,14.6-4.5
		c2.6,0,4.8,0.2,6.9,0.5c2,0.4,3.9,0.9,5.7,1.6c3.4,1.5,6.5,3.4,9.2,5.9l-6.9,8.5c-2.1-1.6-4.4-3-6.8-4.1c-2.3-1-5.1-1.4-8.1-1.4
		c-3.5,0-5.9,0.7-7.3,2c-1.5,1.3-2.2,3-2.2,5.1c-0.1,1.3,0.5,2.5,1.7,3.5c1.1,1.1,3,1.8,5.7,2.1l9.2,0.7c5.8,0.5,9.9,2.3,12.5,5.5
		c2.4,3.2,3.6,7.2,3.6,12.1c-0.1,5.7-2.3,10.1-6.6,13.2c-4.3,3.2-9.7,4.8-16.4,4.9c-9,0-17.1-3.5-24.3-10.5L109.3,108.8z"/>
</g>
</svg>
